<svg width="33" height="32" viewBox="0 0 33 32" fill="none" xmlns="http://www.w3.org/2000/svg">
<path d="M11.899 7.00824C10.9385 8.18213 10.5 9.70007 10.5 11C10.5 11.5523 10.0523 12 9.5 12C5.87634 12 4.5 14.5283 4.5 16C4.5 16.8548 4.71608 17.8355 5.37758 18.5915C6.01523 19.3202 7.20748 20 9.5 20H14.3518C14.167 20.6402 14.0515 21.3097 14.0137 22H9.5C6.79252 22 4.98477 21.1798 3.87242 19.9085C2.78392 18.6645 2.5 17.1452 2.5 16C2.5 13.6444 4.43089 10.4699 8.55688 10.0472C8.72868 8.59142 9.29636 7.03082 10.351 5.74176C11.6661 4.13445 13.7003 3 16.5 3C18.2001 3 20.1821 3.5615 21.7582 4.85104C23.1793 6.01369 24.2307 7.73841 24.4553 10.0573C25.833 10.2223 27.1687 10.7404 28.2362 11.5647C29.5629 12.5892 30.5 14.114 30.5 16C30.5 16.4631 30.4593 16.912 30.3762 17.342C29.8374 16.5729 29.1814 15.892 28.4341 15.3251C28.2606 14.4565 27.7525 13.7182 27.0138 13.1477C26.0771 12.4243 24.7961 12 23.5 12C22.9477 12 22.5 11.5523 22.5 11C22.5 8.7997 21.6344 7.33388 20.4918 6.39896C19.3179 5.4385 17.7999 5 16.5 5C14.2997 5 12.8339 5.86555 11.899 7.00824ZM30.5 22.5C30.5 18.3579 27.1421 15 23 15C18.8579 15 15.5 18.3579 15.5 22.5C15.5 26.6421 18.8579 30 23 30C27.1421 30 30.5 26.6421 30.5 22.5ZM22.7197 17.2197C23.0126 16.9268 23.4874 16.9268 23.7803 17.2197L27.7803 21.2197C28.0732 21.5126 28.0732 21.9874 27.7803 22.2803C27.4874 22.5732 27.0126 22.5732 26.7197 22.2803L24 19.5607V27.25C24 27.6642 23.6642 28 23.25 28C22.8358 28 22.5 27.6642 22.5 27.25V19.5607L19.7803 22.2803C19.4874 22.5732 19.0126 22.5732 18.7197 22.2803C18.4268 21.9874 18.4268 21.5126 18.7197 21.2197L22.7197 17.2197Z" fill="#6B7280"/>
</svg>
